@startuml
!include style.puml

class "{abstract} \nCommands"  {
    String execute()
}
hide "{abstract} \nCommands" fields

class AddCommand {
    +media: Media
    +AddCommand(reviews: ReviewList, media: Media)
}

class ClearCommand {
    +ClearCommand(reviews: ReviewList)
}
hide ClearCommand fields

class FavouriteCommand {
    +userInput: String[]
    +FavouriteCommand(reviews: ReviewList, userInput: String[])
}

class FindCommand {
    -outputString: String
    -movieString: String
    -tvShowString: String
    -listDelimiter: String
    #searchTerm: String
    +FindCommand(reviews: ReviewList, searchTerm: String)
}

class ListCommand {
    -outputString: String
    -movieString: String
    -tvShowString: String
    -listDelimiter: String
    +ListCommand((reviews: ReviewList)
}

class RemoveCommand {
    +index: int
    +RemoveCommand(reviews: ReviewList, index: int)
}

class SortCommand {
    +userInput: String[]
    +SortCommand(reviews: ReviewList, userInput: String[])
}

class ReviewList {
    +inputs: ArrayList<Media>
    +void add(media: Media)
    +void remove(index: int)
    +String toString()
}

"{abstract} \nCommands" -up-> "1" ReviewList : > uses

skinparam groupInheritance 1

"{abstract} \nCommands" <|-right- AddCommand
"{abstract} \nCommands" <|-right- ClearCommand
"{abstract} \nCommands" <|-- FavouriteCommand

"{abstract} \nCommands" <|-- FindCommand
"{abstract} \nCommands" <|-- ListCommand
"{abstract} \nCommands" <|-left- RemoveCommand
"{abstract} \nCommands" <|-left- SortCommand


@enduml