@startuml General Class Diagram
'https://plantuml.com/class-diagram
hide circle

class Duke
class Parser
class UI
class Command
class ModuleList
class Module

class Duke {
moduleList: ModuleList
main(): void
run(): void
}

class Parser {
parse(): Command
specificCase(): Command
}

class UI {
getInput(): String
}

class Command {
Command()
execute(): void
checkExit(): boolean
}

class Module {
course: String
semesterTaken: String
grade: String
mcs: int
Module(course: String, semesterTaken: String, grade: String, mcs: int)
toString(): String
}

class ModuleList {
modules: ArrayList
viewCount: int
mcsCount: int
add(Module): void
delete(): void
view(): void
mc(): void
}

Duke --> "1" ModuleList
Duke -> UI
Duke -> Parser
ModuleList -> UI
Command --> ModuleList
ModuleList -l-> "0..*" Module : add



@enduml