@startuml
'https://plantuml.com/class-diagram
hide circle
skinparam classAttributeIconSize 0

class Build {
    +String:name
    addComponent()
    deleteComponent()
    getAllComponents()
    getTotalCost()
    getTotalPower()
    checkPowerSupply()
    checkSocket()
    checkFormFactor()
    checkExpansionSlots()
    checkGpuSlot()
    checkMemorySlot()
}

class LinkedHashMap2D {
    addElement()
    getElement()
    removeElement()
    getNameList()
}

class Component {
}


Build *-- "1" LinkedHashMap2D
LinkedHashMap2D *-- "*" Component

@enduml